# xmcd
# Track frame offsets:
# 150
# 11602
# 22789
# 38992
# 53863
# 76482
# 89343
# 103236
# 121755
# 138845
# 154364
# 170346
# 191057
# 204084
# 222699
# 238692
#
# Disc length: 3403 seconds
# Revision: 0
# Processed by: cddbd v1.5.2PL0 Copyright (c) Steve Scherf et al.
# Submitted via: VisiTrax 2.10.3.257 - For more info visit www.synapsa.com
#
DISCID=d50d4910
DTITLE=Loveless, Patty - Patty Loveless - 16 Greatest Hits
DYEAR=2007
DGENRE=Country
TTITLE0=Timber, I'm Falling in Love
TTITLE1=Chains
TTITLE2=Blame It on Your Heart
TTITLE3=You Will
TTITLE4=How Can I Help You Say Goodbye
TTITLE5=I Try to Think About Elvis
TTITLE6=Here I Am
TTITLE7=You Don't Even Know Who I Am
TTITLE8=Halfway Down
TTITLE9=You Can Feel Bad
TTITLE10=A Thousand Times a Day
TTITLE11=Lonely Too Long
TTITLE12=She Drew a Broken Heart
TTITLE13=You Don't Seem to Miss Me
TTITLE14=That's the Kind of Mood I'm In
TTITLE15=Lovin' All Night
EXTD=
EXTT0=Composed by Kostas
EXTT1=Composed by Bud Reneau
EXTT2=Composed by Harlan Howard
EXTT3=Composed by Mary Ann Kennedy
EXTT4=
EXTT5=Composed by Gary Burr
EXTT6=Composed by Tony Arata
EXTT7=Composed by Gretchen Peters
EXTT8=Composed by Jim Lauderdale
EXTT9=Composed by Matraca Berg
EXTT10=Composed by Gary Burr
EXTT11=Composed by Mike Lawler
EXTT12=Composed by John McElroy
EXTT13=Composed by Jim Lauderdale
EXTT14=Composed by Rick Giles
EXTT15=Composed by Rodney Crowell
PLAYORDER=
